<svg version="1.1" id="Layer_1" xmlns="http://www.w3.org/2000/svg" xmlns:xlink="http://www.w3.org/1999/xlink" x="0px" y="0px" viewBox="0 0 330 60" enable-background="new 0 0 330 60" xml:space="preserve">
<g>
                <g>
                <path fill="skyblue" d="M120.8,4c-6.8,2.2-13.9,8.4-13,15.4c0,8,8,14.2,15.9,16.8c-6.2-7.1-10.6-15.9-6.7-25.6
					                    C118.8,6.5,120.8,4,120.8,4z" style="--darkreader-inline-fill:#191a1b;" data-darkreader-inline-fill=""></path>
			                    </g>
                <g>
                <path fill="skyblue" d="M106.1,21.3c-2.7,7-0.1,15.8,5.2,19.4c7.1,5.3,16.8,2.7,23.9-3.5c-9.7,1.8-20.3,0-25.7-8.7
					                    C107.1,24.4,106.1,21.3,106.1,21.3z" style="--darkreader-inline-fill:#191a1b;" data-darkreader-inline-fill=""></path>
			                    </g>
                <g>
                <path fill="skyblue" d="M112.5,43.4c4.9,6,13.8,8.5,20.9,5.8c4.8-1.9,8.4-7.1,9.2-13c0.5-3-0.1-5.5-0.5-8.5
					                    c-3.5,9.7-11.4,16.5-21.6,17C115.8,44.4,112.5,43.4,112.5,43.4z" style="--darkreader-inline-fill:#191a1b;" data-darkreader-inline-fill=""></path>
			                    </g>
                <g>
                <path fill="skyblue" d="M136.4,49.6c7.7-1.9,15.6-9,15.6-16.9c0-5.3-5.5-14.8-15.9-16.8c7.1,7.1,11.5,18.6,5.4,27.5
					                    C138.8,47.3,136.4,49.6,136.4,49.6z" style="--darkreader-inline-fill:#191a1b;" data-darkreader-inline-fill=""></path>
			                    </g>
                <g>
                <path fill="skyblue" d="M153.5,30.5c1.1-7.6-0.7-17.3-7.7-20.9c-4.4-2.7-17.3-0.1-21.2,7.1c8.9-3.5,20.3-2.7,25.7,6.8
					                    C152.6,27.4,153.5,30.5,153.5,30.5z" style="--darkreader-inline-fill:#191a1b;" data-darkreader-inline-fill=""></path>
			                    </g>
                <g>
                <path fill="skyblue" d="M144.3,7.1c-5.6-4.5-14.4-7.1-20.6-2.7c-7.1,4.4-8.8,14.1-4.4,22.1c0.9-9.7,8-17.7,17.4-19.4
					                    C141.1,6.6,144.3,7.1,144.3,7.1z" style="--darkreader-inline-fill:#191a1b;" data-darkreader-inline-fill=""></path>
			                    </g>
		                    </g>
                </svg>